<?xml version="1.0" encoding="utf-8"?>
<!-- Generator: Adobe Illustrator 25.0.1, SVG Export Plug-In . SVG Version: 6.00 Build 0)  -->
<svg version="1.1" id="Capa_1" xmlns="http://www.w3.org/2000/svg" xmlns:xlink="http://www.w3.org/1999/xlink" x="0px" y="0px"
	 viewBox="0 0 300 300" style="enable-background:new 0 0 300 300;" xml:space="preserve">
<style type="text/css">
	.st0{fill:#F3E3D9;}
	.st1{fill:#B76060;}
</style>
<path class="st0" d="M166.1,50.8C99.6,46.3,74.2,8.6,42,22.9C13.1,35.7,9.5,87.8,7.8,113.8c-4,58.5,19.3,76.4,7.1,125.8
	C6,276.2,0.2,278.2,7.2,287.9c13.9,19,66-25.4,158.9-17.2c55.7,4.9,80.9,28.8,104.3,12.4c13.6-9.5,16.2-25.4,20-87
	c8.4-137.7,0.6-148-7.1-153C257,26.2,229.2,55.1,166.1,50.8z"/>
<g>
	<g>
		<g>
			<path class="st1" d="M103.2,162.8H54.1c-1.9,0-3.5-1.6-3.5-3.5c0-1.9,1.6-3.5,3.5-3.5h49.2c1.9,0,3.5,1.6,3.5,3.5
				C106.8,161.2,105.2,162.8,103.2,162.8z"/>
		</g>
	</g>
	<g>
		<g>
			<path class="st1" d="M250.9,205H54.1c-1.9,0-3.5-1.6-3.5-3.5s1.6-3.5,3.5-3.5h196.8c1.9,0,3.5,1.6,3.5,3.5S252.9,205,250.9,205z"
				/>
		</g>
	</g>
	<g>
		<g>
			<path class="st1" d="M54.1,226.1H43.5c-1.9,0-3.5-1.6-3.5-3.5V78.4c0-1.9,1.6-3.5,3.5-3.5h10.5c1.9,0,3.5,1.6,3.5,3.5v144.2
				C57.6,224.5,56,226.1,54.1,226.1z M47,219h3.5V81.9H47V219z"/>
		</g>
	</g>
	<g>
		<g>
			<path class="st1" d="M261.5,226.1h-10.5c-1.9,0-3.5-1.6-3.5-3.5v-94.9c0-1.9,1.6-3.5,3.5-3.5h10.5c1.9,0,3.5,1.6,3.5,3.5v94.9
				C265,224.5,263.4,226.1,261.5,226.1z M254.5,219h3.5v-87.9h-3.5V219z"/>
		</g>
	</g>
	<g>
		<g>
			<path class="st1" d="M92.7,141.7c-1.9,0-3.5-1.6-3.5-3.5c0-5.8-4.7-10.6-10.6-10.6c-1.9,0-3.5-1.6-3.5-3.5c0-1.9,1.6-3.5,3.5-3.5
				c9.7,0,17.6,7.9,17.6,17.6C96.2,140.1,94.7,141.7,92.7,141.7z"/>
		</g>
	</g>
	<g>
		<g>
			<path class="st1" d="M103.2,148.7H54.1c-1.9,0-3.5-1.6-3.5-3.5c0-1.9,1.6-3.5,3.5-3.5h49.2c1.9,0,3.5,1.6,3.5,3.5
				C106.8,147.2,105.2,148.7,103.2,148.7z"/>
		</g>
	</g>
	<g>
		<g>
			<path class="st1" d="M78.6,127.6H54c-1.9,0-3.5-1.6-3.5-3.5s1.6-3.5,3.5-3.5h24.6c1.9,0,3.5,1.6,3.5,3.5S80.6,127.6,78.6,127.6z"
				/>
		</g>
	</g>
	<g>
		<g>
			<path class="st1" d="M92.7,148.7c-1.9,0-3.5-1.6-3.5-3.5v-7c0-1.9,1.6-3.5,3.5-3.5c1.9,0,3.5,1.6,3.5,3.5v7
				C96.2,147.2,94.7,148.7,92.7,148.7z"/>
		</g>
	</g>
	<g>
		<g>
			<path class="st1" d="M103.2,183.9c-1.9,0-3.5-1.6-3.5-3.5v-38.7c0-1.9,1.6-3.5,3.5-3.5s3.5,1.6,3.5,3.5v38.7
				C106.8,182.3,105.2,183.9,103.2,183.9z"/>
		</g>
	</g>
	<g>
		<g>
			<path class="st1" d="M236.8,183.9c-1.9,0-3.5-1.6-3.5-3.5v-38.7c0-1.9,1.6-3.5,3.5-3.5s3.5,1.6,3.5,3.5v38.7
				C240.4,182.3,238.8,183.9,236.8,183.9z"/>
		</g>
	</g>
	<g>
		<g>
			<path class="st1" d="M236.8,145.2H103.2c-1.9,0-3.5-1.6-3.5-3.5c0-1.9,1.6-3.5,3.5-3.5h133.6c1.9,0,3.5,1.6,3.5,3.5
				C240.4,143.6,238.8,145.2,236.8,145.2z"/>
		</g>
	</g>
	<g>
		<g>
			<path class="st1" d="M250.9,162.8h-14.1c-1.9,0-3.5-1.6-3.5-3.5c0-1.9,1.6-3.5,3.5-3.5h14.1c1.9,0,3.5,1.6,3.5,3.5
				C254.4,161.2,252.9,162.8,250.9,162.8z"/>
		</g>
	</g>
	<g>
		<g>
			<path class="st1" d="M236.8,183.9H103.2c-1.9,0-3.5-1.6-3.5-3.5s1.6-3.5,3.5-3.5h133.6c1.9,0,3.5,1.6,3.5,3.5
				S238.8,183.9,236.8,183.9z"/>
		</g>
	</g>
	<g>
		<g>
			<path class="st1" d="M170,159.3c-9.7,0-17.6-7.9-17.6-17.6c0-1.9,1.6-3.5,3.5-3.5s3.5,1.6,3.5,3.5c0,5.8,4.7,10.5,10.5,10.5
				s10.5-4.7,10.5-10.5c0-1.9,1.6-3.5,3.5-3.5s3.5,1.6,3.5,3.5C187.6,151.4,179.7,159.3,170,159.3z"/>
		</g>
	</g>
	<g>
		<g>
			<path class="st1" d="M250.9,148.7h-14.1c-1.9,0-3.5-1.6-3.5-3.5c0-1.9,1.6-3.5,3.5-3.5h14.1c1.9,0,3.5,1.6,3.5,3.5
				C254.5,147.2,252.9,148.7,250.9,148.7z"/>
		</g>
	</g>
	<g>
		<g>
			<path class="st1" d="M226.3,173.3H113.8c-1.9,0-3.5-1.6-3.5-3.5s1.6-3.5,3.5-3.5h112.5c1.9,0,3.5,1.6,3.5,3.5
				S228.3,173.3,226.3,173.3z"/>
		</g>
	</g>
	<g>
		<g>
			<path class="st1" d="M226.3,173.3c-1.9,0-3.5-1.6-3.5-3.5v-28.1c0-1.9,1.6-3.5,3.5-3.5s3.5,1.6,3.5,3.5v28.1
				C229.8,171.8,228.3,173.3,226.3,173.3z"/>
		</g>
	</g>
	<g>
		<g>
			<path class="st1" d="M113.8,173.3c-1.9,0-3.5-1.6-3.5-3.5v-28.1c0-1.9,1.6-3.5,3.5-3.5s3.5,1.6,3.5,3.5v28.1
				C117.3,171.8,115.8,173.3,113.8,173.3z"/>
		</g>
	</g>
</g>
</svg>
