<svg id="Capa_1" data-name="Capa 1" xmlns="http://www.w3.org/2000/svg" viewBox="0 0 300 300"><defs><style>.cls-1{fill:#f3e3d9;}.cls-2{fill:#b76060;}</style></defs><path class="cls-1" d="M170.52,52.21C110.83,47.94,88-.58,59.08,12.78c-25.91,12-29.13,61-30.72,85.43-3.61,55,17.28,71.82,6.43,118.28-8,34.36-24.24,45.69-17.86,54.76,12.55,17.86,70.23-33.32,153.59-25.55,50,4.65,72.63,27.11,93.59,11.68,12.16-8.95,14.51-23.85,17.86-81.78,7.47-129.44.55-139.13-6.43-143.84C252,15.92,227.09,56.25,170.52,52.21Z"/><path class="cls-2" d="M158.7,73q25.35,0,50.71,0a23.34,23.34,0,0,1,16.86,6.72q15.4,14.82,30.87,29.58a10.53,10.53,0,0,1,3.42,8.08q-.07,40.59,0,81.19c0,4.54-1.44,5.83-6,5.38a22.16,22.16,0,0,1-11.07-4.37c-2.5-1.82-4.94-3.76-8.17-4.28a14.91,14.91,0,0,0-11.85,2.63,44.14,44.14,0,0,1-3.92,2.72c-7.8,4.62-15.65,4.62-23.48.06-1.17-.69-2.25-1.54-3.37-2.33-6.41-4.51-12.55-4.55-18.9,0-3.35,2.39-6.74,4.63-10.93,5.32a22,22,0,0,1-17.06-3.72c-1.17-.84-2.35-1.68-3.54-2.48a14.77,14.77,0,0,0-16.48.1c-1.44,1-2.81,2.07-4.3,3-7.93,4.78-15.91,4.78-23.86,0-1.17-.7-2.26-1.54-3.37-2.33-6.23-4.37-12.47-4.39-18.71.1-3.67,2.63-7.43,5-12.06,5.49a18.71,18.71,0,0,1-3.17.15,3.55,3.55,0,0,1-3.55-3.46,19.12,19.12,0,0,1-.05-2.27c0-26.46,0-52.92,0-79.38a13.43,13.43,0,0,1,4.48-10.65c10.09-9.41,20-19,29.92-28.6A23.13,23.13,0,0,1,107.76,73Zm0,51H67.53c-3.51,0-3.52,0-3.52,3.41v65.72c0,.54,0,1.07,0,1.6,0,1.32.6,1.56,1.73,1.13A15.56,15.56,0,0,0,70,193.25c6.36-5.05,13.43-6.81,21.34-4.64,1.4.39,1.78-.16,1.75-1.42s0-2.58,0-3.86q0-19.23,0-38.44c0-.86-.4-2.19.57-2.47a9.74,9.74,0,0,1,6,0c1.24.45.63,2.17.63,3.31q.06,22.74,0,45.49a3.79,3.79,0,0,0,2.36,3.92,15.21,15.21,0,0,0,13.39.12,3.87,3.87,0,0,0,2.53-4.05c-.12-8.8-.08-17.59,0-26.38,0-5-.66-4.36,4.47-4.55,2.18-.08,2.87.61,2.84,2.81-.11,7.81,0,15.62-.07,23.43,0,1.93.42,2.58,2.46,2a21.44,21.44,0,0,1,11-.2c2.91.67,2.92.67,2.92-2.43,0-13.72,0-27.44,0-41.16,0-2,.56-2.86,2.58-2.59a12,12,0,0,0,1.59,0c3.13,0,3.14,0,3.14,3.11,0,15.32,0,30.63,0,45.94a3.8,3.8,0,0,0,2.32,3.95,15.11,15.11,0,0,0,13.79-.06,3.47,3.47,0,0,0,2.15-3.58c-.08-8.79-.07-17.59,0-26.38,0-5.35-.85-4.67,4.88-4.81,1.94-.05,2.58.72,2.4,2.53-.08.83,0,1.67,0,2.5,0,7.13,0,14.25,0,21.38,0,1.62.27,2.4,2.18,1.84a21.28,21.28,0,0,1,12.12,0c1.71.49,2.22-.08,2.1-1.7,0-.6,0-1.21,0-1.81,0-13.35.06-26.69,0-40,0-2.34.72-3.22,3-2.88a6.91,6.91,0,0,0,.91,0c3.43,0,3.44,0,3.44,3.49,0,15.24,0,30.48,0,45.72a3.62,3.62,0,0,0,2.26,3.75c5.65,2.63,11,2.22,16.08-1.46a3.73,3.73,0,0,0,1.74-3.39q-.07-12.74,0-25.48c0-5-.65-4.27,4.54-4.47,2.27-.09,2.8.77,2.77,2.88-.11,7.43-.05,14.86,0,22.29,0,2.92,0,3,2.85,2.54a21.88,21.88,0,0,1,16.76,4.08,50.53,50.53,0,0,0,4.53,3c2.71,1.55,3.15,1.26,3.15-1.87V127.31c0-3.36,0-3.37-3.34-3.37Zm-.1-7.29q45.93,0,91.85,0c.85,0,2.06.45,2.44-.61.31-.87-.76-1.38-1.34-1.94-10.1-9.72-20.25-19.4-30.32-29.15a16,16,0,0,0-11.67-4.69q-50.94.06-101.87,0a16.16,16.16,0,0,0-11.84,4.82C86,94.67,76,104.18,66,113.74c-.68.66-2,1.26-1.66,2.24.42,1.24,1.86.65,2.83.65Q112.92,116.68,158.62,116.65Z"/><path class="cls-2" d="M238.69,212.13c0,3.11,0,6.21,0,9.32s-1.33,4.35-4.28,4.37q-8.52.08-17,0c-2.71,0-4.07-1.38-4.11-4.07-.07-4,0-8-.05-12,0-1.61.63-2.11,2.16-2.08,6.13.1,5.06-.6,5.12,5,.07,5.94,0,6,6,5.93,5.67,0,4.85.75,4.92-5,0-3.71.06-7.42,0-11.13,0-1.58.58-2.13,2.13-2.11,6.16.1,5.05-.6,5.16,5C238.73,207.58,238.69,209.86,238.69,212.13Z"/><path class="cls-2" d="M78.57,212c0-3.18.06-6.36,0-9.54,0-1.59.58-2.13,2.13-2.11,6.17.09,5.06-.6,5.16,5q.09,5.56,0,11.13c0,1.56.54,2.19,2.11,2.13,2.27-.09,4.55-.08,6.82,0,1.45,0,2-.51,2-2-.06-2.34,0-4.69,0-7,0-1.34.48-1.91,1.86-1.9,6.62.06,5.28-.65,5.41,5.15.06,2.88,0,5.76,0,8.64,0,3.09-1.35,4.38-4.49,4.4q-8.17,0-16.36,0c-3.35,0-4.58-1.3-4.61-4.74C78.55,218.06,78.57,215,78.57,212Z"/><path class="cls-2" d="M109,95.39a2.6,2.6,0,0,0,0-5.2h-6.93a2.6,2.6,0,0,0,0,5.2Zm0,0"/><path class="cls-2" d="M161,95.39a2.6,2.6,0,1,0,0-5.2H121.05a2.6,2.6,0,0,0,0,5.2Zm-33,0"/><path class="cls-2" d="M226.05,107.19a2.6,2.6,0,0,0,0,5.2H233a2.6,2.6,0,1,0,0-5.2Zm0,0"/><path class="cls-2" d="M226,159.42a3.71,3.71,0,0,0-7.41,0v9.88a3.71,3.71,0,0,0,7.41,0Zm0,0"/><path class="cls-2" d="M198.68,141.65a3.71,3.71,0,0,0-7.41,0v9.87a3.71,3.71,0,1,0,7.41,0Zm0,0"/><path class="cls-2" d="M175.14,155.05a3.7,3.7,0,1,0-7.4,0v9.88a3.7,3.7,0,0,0,7.4,0Zm0,0"/><path class="cls-2" d="M149.57,141.6a3.71,3.71,0,0,0-7.41,0v9.87a3.71,3.71,0,1,0,7.41,0Zm0,0"/><path class="cls-2" d="M126,156a3.71,3.71,0,0,0-7.41,0v9.87a3.71,3.71,0,0,0,7.41,0Zm0,0"/><path class="cls-2" d="M100.38,141.52a3.71,3.71,0,0,0-7.41,0v9.88a3.71,3.71,0,0,0,7.41,0Zm0,0"/><path class="cls-2" d="M174.05,107.19a2.6,2.6,0,0,0,0,5.2H214a2.6,2.6,0,1,0,0-5.2Zm33,0"/></svg>