<svg id="Capa_1" data-name="Capa 1" xmlns="http://www.w3.org/2000/svg" viewBox="0 0 300 300"><defs><style>.cls-1{fill:#f3e3d9;}.cls-2{fill:#b76060;}</style></defs><path class="cls-1" d="M167.38,28.6c68.1-1.23,87.25-7.73,99.2,6.89C284,56.8,254.71,84.55,253.49,149.85c-1.36,72.48,33.54,100.3,15.84,121.94-19.56,23.91-62.82-9.31-161.2,0-52.08,4.93-73.41,17.4-84,4.82C4.28,253.2,69.75,200,57.84,124.36,50,74.56,15.14,56.42,26.15,36.87,36.55,18.41,70,30.37,167.38,28.6Z"/><path class="cls-2" d="M218,60.8H119.2a2.6,2.6,0,0,0,0,5.2H218a2.73,2.73,0,0,1,2.74,2.74V230.33a2.73,2.73,0,0,1-2.74,2.74h-128a2.72,2.72,0,0,1-2.74-2.74V68.74A2.72,2.72,0,0,1,90.05,66h17a2.6,2.6,0,1,0,0-5.2h-17a8,8,0,0,0-7.94,7.94V230.33a8,8,0,0,0,7.94,7.94H218a8,8,0,0,0,7.94-7.94V68.74A8,8,0,0,0,218,60.8Zm0,0"/><path class="cls-2" d="M213,108.22a2.62,2.62,0,0,0,2.6-2.6V73.8a2.62,2.62,0,0,0-2.6-2.6H95.11a2.62,2.62,0,0,0-2.6,2.6V223.88a2.61,2.61,0,0,0,2.6,2.6h35.25a2.6,2.6,0,0,0,0-5.2H97.71V209.67l21.17-21.18a6.29,6.29,0,0,1,1.5,1.39c1.17,1.32,2.94,3.29,6.27,3.29s5.09-2,6.27-3.29,1.49-1.56,2.36-1.56,1.28.31,2.39,1.56,3,3.29,6.28,3.29,5.09-2,6.27-3.29a5.23,5.23,0,0,1,1.56-1.42l11.2,11.2-8.6,8.52a2.6,2.6,0,0,0,3.67,3.68l18.55-18.55a5.94,5.94,0,0,1,1.56,1.42c1.17,1.32,2.94,3.3,6.27,3.3s5.1-2,6.28-3.3a5.37,5.37,0,0,1,1.55-1.42l18.17,18.16v9.81H142.56a2.6,2.6,0,0,0,0,5.2H213a2.61,2.61,0,0,0,2.6-2.6V117.71a2.6,2.6,0,1,0-5.2,0v86.42L186.23,180a2.62,2.62,0,0,0-3.67,0l-16,16-29.42-29.43a2.63,2.63,0,0,0-3.68,0L97.71,202.33V76.4H210.36v29.22a2.6,2.6,0,0,0,2.6,2.6ZM184.4,185.51l4.09,4.09a13,13,0,0,0-1.7,1.7c-1.11,1.25-1.49,1.56-2.36,1.56s-1.28-.31-2.36-1.56a13,13,0,0,0-1.7-1.7ZM135.31,172.1,148,184.75a12.37,12.37,0,0,0-1.7,1.7c-1.11,1.25-1.49,1.56-2.4,1.56s-1.28-.31-2.39-1.56-2.94-3.29-6.27-3.29-5.1,2-6.27,3.29-1.49,1.56-2.36,1.56-1.28-.31-2.36-1.56a13.9,13.9,0,0,0-1.63-1.63Zm0,0"/><path class="cls-2" d="M191.29,122.84c0-5.26-8.9-9.56-17.26-11.89a15.3,15.3,0,0,0-8.84-13A26.17,26.17,0,0,0,154,95.6h-1a2.59,2.59,0,0,0,.17,5.17H154c4.23,0,13.72,1,14.8,10.36-4.51,1.45-17.26,4.75-29.6.07a10.08,10.08,0,0,1,4.05-7.49,2.6,2.6,0,1,0-3.08-4.19A15.3,15.3,0,0,0,134,110.89c-8.36,2.32-17.26,6.62-17.26,11.89,0,4.88,8.21,9.7,19.27,12.37,1.35,6.41,8.77,11.16,18,11.16s16.67-4.75,18-11.16c11.09-2.57,19.3-7.42,19.3-12.31ZM154,141.22c-5.16,0-9.74-2-11.82-4.75a78.07,78.07,0,0,0,23.64,0c-2.08,2.77-6.65,4.75-11.82,4.75Zm22.84-12.86a70.37,70.37,0,0,1-45.68,0c-6.21-2.26-8.84-4.65-9.22-5.52.45-1.07,4.54-4.57,14.35-7.1a44.17,44.17,0,0,0,16.88,3.19,56.34,56.34,0,0,0,18.48-3.19c9.84,2.53,13.93,6,14.38,7.1-.35.87-3,3.26-9.19,5.52Zm0,0"/><path class="cls-2" d="M112.26,146.41h6.94a2.6,2.6,0,1,0,0-5.19h-6.94a2.6,2.6,0,1,0,0,5.19Zm0,0"/><path class="cls-2" d="M156.28,87.49h6.94a2.6,2.6,0,0,0,0-5.2h-6.94a2.6,2.6,0,0,0,0,5.2Zm0,0"/><path class="cls-2" d="M170.15,153.69h-6.93a2.6,2.6,0,0,0,0,5.2h6.93a2.6,2.6,0,0,0,0-5.2Zm0,0"/><path class="cls-2" d="M187.83,144.68h6.93a2.6,2.6,0,0,0,0-5.2h-6.93a2.6,2.6,0,0,0,0,5.2Zm0,0"/><path class="cls-2" d="M200.83,93.17a2.62,2.62,0,0,0-2.6-2.6h-6.94a2.6,2.6,0,1,0,0,5.2h6.94a2.59,2.59,0,0,0,2.6-2.6Zm0,0"/><path class="cls-2" d="M118,94.39a2.6,2.6,0,0,0,0-5.2h-6.93a2.6,2.6,0,0,0,0,5.2Zm0,0"/><path class="cls-2" d="M156.63,125.44a2.6,2.6,0,1,1-2.6-2.6,2.59,2.59,0,0,1,2.6,2.6Zm0,0"/><path class="cls-2" d="M142.94,124.06a2.6,2.6,0,1,1-2.6-2.6,2.6,2.6,0,0,1,2.6,2.6Zm0,0"/><path class="cls-2" d="M170.32,124.06a2.6,2.6,0,1,1-2.6-2.6,2.6,2.6,0,0,1,2.6,2.6Zm0,0"/></svg>