<svg id="Capa_1" data-name="Capa 1" xmlns="http://www.w3.org/2000/svg" viewBox="0 0 300 300"><defs><style>.cls-1{fill:#f3e3d9;}.cls-2{fill:#b76060;}</style></defs><path class="cls-1" d="M138,48c56.44-2.2,84.55-40.42,104-26,13.21,9.79,1.7,28.48,11,76,9,46.05,23.7,48.38,25,78,1.82,41.43-24.44,93.33-61,103-34,9-49.28-25.86-100-22-39.31,3-52,25.6-67,17-21.3-12.23,2.55-59.07-6-141C37.24,68.24,16.19,38.53,31,26,48.34,11.33,79.29,50.29,138,48Z"/><path class="cls-2" d="M179.51,221.26a35.65,35.65,0,0,0,29.36-15.42c1.83-2.65-2.3-5.51-4.14-2.85a30.61,30.61,0,0,1-25.22,13.25c-3.22,0-3.23,5,0,5Zm0,0"/><path class="cls-2" d="M124.94,106v50a2.51,2.51,0,1,0,5,0V106a2.51,2.51,0,0,0-5,0Zm0,0"/><path class="cls-2" d="M174,106v50a2.51,2.51,0,0,0,5,0V106a2.51,2.51,0,0,0-5,0Zm0,0"/><path class="cls-2" d="M201.07,141.3a2.51,2.51,0,0,0-2.51,2.51V156a2.51,2.51,0,1,0,5,0V143.81a2.51,2.51,0,0,0-2.51-2.51Zm0,0"/><path class="cls-2" d="M203.58,106a2.51,2.51,0,0,0-5,0v23.76a2.51,2.51,0,0,0,5,0Zm0,0"/><path class="cls-2" d="M154.39,106a2.51,2.51,0,1,0-5,0v8.53a2.51,2.51,0,0,0,5,0Zm0,0"/><path class="cls-2" d="M151.88,126.07a2.51,2.51,0,0,0-2.51,2.51V156a2.51,2.51,0,0,0,5,0V128.58a2.52,2.52,0,0,0-2.51-2.51Zm0,0"/><path class="cls-2" d="M232.69,72.87a2.51,2.51,0,0,0-2.51,2.51v5.18h-8.44v-.48a8.63,8.63,0,1,0-17.25,0v.48h-7.17v-.48a8.63,8.63,0,1,0-17.26,0v.48h-7.17v-.48a8.63,8.63,0,1,0-17.26,0v.48h-7.17v-.48a8.63,8.63,0,1,0-17.26,0v.48H124v-.48a8.63,8.63,0,1,0-17.26,0v.48H68.88V75.21c0-3.22-5-3.23-5,0V90.94c0,3.22,5,3.22,5,0V85.58h37.89v80.7H70.55A6.7,6.7,0,0,0,63.86,173v.09a6.7,6.7,0,0,0,6.69,6.69h.17v4.54a48.69,48.69,0,0,0,41.63,48.12l-6.09,6.09c-2.25,2.25,1.25,5.85,3.55,3.55l9.14-9.14h59.16l9.14,9.13c2.26,2.27,5.82-1.27,3.54-3.55l-5.86-5.86a48.69,48.69,0,0,0,43.41-48.35v-4.54h.17a6.7,6.7,0,0,0,6.69-6.69V173a6.7,6.7,0,0,0-6.69-6.69h-6.77v-47c0-3.22-5-3.22-5,0v47H111.79V80.08c0-4.65,7.22-4.68,7.22,0v.48h-2.44c-3.22,0-3.23,5,0,5H119V87.9c0,11.13,17.26,11.13,17.26,0V82.15a2.63,2.63,0,0,0-.05-.49V80.08a3.61,3.61,0,1,1,7.22,0v.48H142c-3.22,0-3.22,5,0,5h1.44V87.9c0,11.13,17.26,11.13,17.26,0V82.15a2.63,2.63,0,0,0,0-.49V80.08a3.61,3.61,0,0,1,7.22,0v.48H166.1c-3.22,0-3.23,5,0,5h1.77V87.9c0,11.13,17.25,11.13,17.25,0V82.15a2.63,2.63,0,0,0,0-.49V80.08a3.61,3.61,0,0,1,7.22,0v.48h-2.44c-3.22,0-3.23,5,0,5h2.44V87.9c0,11.13,17.25,11.13,17.25,0V82.15a2.63,2.63,0,0,0,0-.49V80.08a3.61,3.61,0,1,1,7.22,0v.48h-2.44c-3.23,0-3.23,5,0,5h2.44v20c0,3.23,5,3.23,5,0v-20h8.44v5.53c0,3.22,5,3.22,5,0V75.38a2.51,2.51,0,0,0-2.51-2.51ZM230.18,173a1.68,1.68,0,0,1-1.67,1.76l-113.45,0c-3.25,0-3.28,5.06,0,5.06H223.32v4.54a43.65,43.65,0,0,1-43.6,43.61H119.34a43.65,43.65,0,0,1-43.6-43.61v-4.54H100c3.26,0,3.29-5.06,0-5.06l-29.45,0a1.72,1.72,0,0,1,0-3.43h158a1.67,1.67,0,0,1,1.67,1.67ZM127.64,91.51A3.61,3.61,0,0,1,124,87.9V85.58h7.22V87.9a3.61,3.61,0,0,1-3.61,3.61Zm24.43,0a3.61,3.61,0,0,1-3.61-3.61V85.58h7.22V87.9a3.61,3.61,0,0,1-3.61,3.61Zm24.43,0a3.61,3.61,0,0,1-3.61-3.61V85.58h7.22V87.9a3.61,3.61,0,0,1-3.61,3.61Zm24.42,0a3.61,3.61,0,0,1-3.6-3.61V85.58h7.21V87.9a3.61,3.61,0,0,1-3.61,3.61Zm0,0"/></svg>