<svg id="Capa_1" data-name="Capa 1" xmlns="http://www.w3.org/2000/svg" viewBox="0 0 68.9 42"><defs><style>.cls-1{fill:#b76060;}.cls-2{fill:#fff;}</style></defs><path class="cls-1" d="M40.84.25C37.7-.39,34.71,1.44,32,3a18.21,18.21,0,0,1-7.51,2.43c-7.2.7-9.67-3.38-14.78-1.23-4.69,2-6.64,7.08-7.7,9.85C-2,24.59.17,39.48,6.67,41.74c5.06,1.76,7.61-6,17.86-7.39,9-1.28,11.23,4.12,23.42,4.62,8.73.36,19.72-1.91,21-6.78.58-2.31-1.5-4.25-2.59-6a10,10,0,0,1-1.52-7.27,46,46,0,0,1,1.77-5.15,6.83,6.83,0,0,0-.08-5.31c-1-1.94-3.45-2.77-5.66-2.83S56.42,6,54.21,6a13.88,13.88,0,0,1-7.87-2.48c-1.49-1-2.81-2.4-4.52-3A6.31,6.31,0,0,0,40.84.25Z"/><path class="cls-2" d="M19.84,22.19H17.27v-.25h7.54v.25h-2.1v6.09h-.19a1,1,0,0,0-1.06-.77,4,4,0,0,0-1.55.49,8.16,8.16,0,0,1-3.43.69c-4.58,0-7.75-3.35-7.75-8.3,0-5.7,4.31-9,7.57-9a7,7,0,0,1,2.82.7,3.34,3.34,0,0,0,1.25.32.68.68,0,0,0,.7-.44h.18v4.82h-.18c-.56-2.5-1.86-5.14-4.75-5.14A3.49,3.49,0,0,0,13,13.4c-.83,1.43-1,4.63-1,6.78,0,3.35.14,4.83.74,6.25s1.64,2,3.54,2c3.21,0,3.54-1.34,3.54-3.06Z"/><path class="cls-2" d="M16.48,28.78a7.55,7.55,0,0,1-5.66-2.32,8.73,8.73,0,0,1-2.18-6.07,9.56,9.56,0,0,1,2.59-6.7A7.33,7.33,0,0,1,16.3,11.3a7,7,0,0,1,2.85.7,3.25,3.25,0,0,0,1.22.31.6.6,0,0,0,.62-.39l0-.05h.33v5H21V16.8c-.52-2.32-1.74-5.07-4.66-5.07a3.38,3.38,0,0,0-3.25,1.71c-.63,1.08-1,3.41-1,6.74,0,3.48.16,4.88.73,6.21s1.66,2,3.46,2c3.19,0,3.45-1.34,3.45-3v-3.1H17.18v-.43H24.9v.43H22.8v6.09h-.34l0-.07a1,1,0,0,0-1-.7,3.48,3.48,0,0,0-1.35.41l-.17.07A8.21,8.21,0,0,1,16.48,28.78ZM16.3,11.47a7.19,7.19,0,0,0-4.94,2.34,9.37,9.37,0,0,0-2.54,6.58c0,4.91,3.08,8.21,7.66,8.21a8,8,0,0,0,3.39-.68l.17-.07a3.62,3.62,0,0,1,1.42-.43,1.11,1.11,0,0,1,1.13.77h0V22.1h2.11V22H17.36v.07h2.57v3.28c0,1.66-.28,3.15-3.63,3.15-1.88,0-3-.66-3.62-2.07s-.75-2.77-.75-6.28c0-2.34.17-5.43,1-6.83a3.57,3.57,0,0,1,3.41-1.8c3,0,4.28,2.78,4.82,5.14h0V12.05h0a.75.75,0,0,1-.75.44,3.48,3.48,0,0,1-1.28-.33A6.9,6.9,0,0,0,16.3,11.47Z"/><path class="cls-2" d="M27.43,18.44H25.76v-.25h4v7c0,2.24.53,3.08,1.74,3.08,2.13,0,2.61-2.41,2.61-3.64v-6.2H32.47v-.25h3.94V28h1.66v.26h-4v-2a2.74,2.74,0,0,1-2.82,2.2,3.72,3.72,0,0,1-3-1.25,4.69,4.69,0,0,1-.83-3.21ZM31.11,13a1.19,1.19,0,0,1-1.21,1.2A1.21,1.21,0,1,1,31.11,13Zm4.26,0A1.21,1.21,0,0,1,33,13a1.21,1.21,0,1,1,2.41,0Z"/><path class="cls-2" d="M31.27,28.62a3.87,3.87,0,0,1-3.08-1.28,4.75,4.75,0,0,1-.85-3.27V18.53H25.67V18.1h4.16v7.1a4.74,4.74,0,0,0,.41,2.33,1.28,1.28,0,0,0,1.24.66c2,0,2.52-2.23,2.52-3.55V18.53H32.38V18.1H36.5v9.83h1.66v.44H34V26.82A2.67,2.67,0,0,1,31.27,28.62ZM25.85,18.35h1.67v5.72a4.55,4.55,0,0,0,.81,3.15,3.68,3.68,0,0,0,2.94,1.22A2.67,2.67,0,0,0,34,26.3l.17-.5v2.39H38v-.08H36.32V18.28H32.56v.07h1.62v6.29c0,1.39-.57,3.73-2.7,3.73-1.3,0-1.83-.92-1.83-3.17V18.28h-3.8Zm8.31-4.1A1.29,1.29,0,1,1,35.45,13,1.27,1.27,0,0,1,34.16,14.25Zm0-2.41a1.12,1.12,0,0,0,0,2.23A1.1,1.1,0,0,0,35.28,13,1.12,1.12,0,0,0,34.16,11.84ZM29.9,14.25A1.29,1.29,0,1,1,31.2,13,1.29,1.29,0,0,1,29.9,14.25Zm0-2.41a1.12,1.12,0,0,0,0,2.23A1.1,1.1,0,0,0,31,13,1.12,1.12,0,0,0,29.9,11.84Z"/><path class="cls-2" d="M41.57,18.44H39.9v-.25h4V28h1.67v.26H39.9V28h1.67Zm2.94-6.59c.6-.72.78-.95,1.22-.95a.88.88,0,0,1,.86.81.73.73,0,0,1-.42.67L42,15.25h-.28Z"/><path class="cls-2" d="M45.64,28.37H39.81v-.44h1.67v-9.4H39.81V18.1H44v9.83h1.67ZM40,28.19h5.47v-.08H43.79V18.28H40v.07h1.67v9.76H40Zm2-12.85h-.5l3-3.59c.59-.7.79-.94,1.26-.94a1,1,0,0,1,1,.9.81.81,0,0,1-.46.74Zm-.12-.18h.06l4.19-2.85a.66.66,0,0,0,.38-.6.79.79,0,0,0-.77-.72c-.39,0-.56.2-1.12.87l0,0Z"/><path class="cls-2" d="M56.93,28H58.6v.26h-4V27a2.66,2.66,0,0,1-2.43,1.53c-2.2,0-4.77-2.24-4.77-5.39a5.35,5.35,0,0,1,4.81-5.39,2.67,2.67,0,0,1,2.39,1.36V11.5H53v-.25h4Zm-3-9.37A2.44,2.44,0,0,0,52.26,18C50.13,18,50,20.2,50,22.79c0,3.75.21,5.49,2.2,5.49a2.31,2.31,0,0,0,2.08-1.23c.44-.72.51-1.9.51-4C54.8,20.22,54.78,19.44,53.92,18.65Z"/><path class="cls-2" d="M52.19,28.62c-2.29,0-4.86-2.34-4.86-5.48a5.61,5.61,0,0,1,1.64-4,4.85,4.85,0,0,1,3.26-1.52,2.66,2.66,0,0,1,2.3,1.17V11.59H52.86v-.43H57V27.93h1.67v.44H54.53v-1A2.64,2.64,0,0,1,52.19,28.62Zm0-10.78A4.61,4.61,0,0,0,49.1,19.3a5.4,5.4,0,0,0-1.59,3.84c0,3,2.47,5.3,4.68,5.3A2.57,2.57,0,0,0,54.53,27l.18-.31v1.52h3.8v-.08H56.84V11.33H53v.08h1.67v8l-.18-.27A2.56,2.56,0,0,0,52.23,17.84Zm0,10.53c-2.06,0-2.29-1.79-2.29-5.58a11.56,11.56,0,0,1,.33-3.39,2,2,0,0,1,2-1.49,2.56,2.56,0,0,1,1.72.67h0c.88.8.91,1.59.91,4.5,0,2.14-.08,3.28-.52,4A2.42,2.42,0,0,1,52.21,28.37Zm0-10.28a1.77,1.77,0,0,0-1.84,1.36,11.54,11.54,0,0,0-.32,3.34,14.51,14.51,0,0,0,.35,4.12,1.64,1.64,0,0,0,1.76,1.28,2.25,2.25,0,0,0,2-1.18c.42-.69.49-1.82.49-3.92,0-2.91,0-3.62-.85-4.37A2.36,2.36,0,0,0,52.26,18.09Z"/></svg>