<?xml version="1.0" encoding="utf-8"?>
<!-- Generator: Adobe Illustrator 24.1.2, SVG Export Plug-In . SVG Version: 6.00 Build 0)  -->
<svg version="1.1" id="Capa_1" xmlns="http://www.w3.org/2000/svg" xmlns:xlink="http://www.w3.org/1999/xlink" x="0px" y="0px"
	 viewBox="0 0 1920 600" style="enable-background:new 0 0 1920 600;" xml:space="preserve">
<style type="text/css">
	.st0{fill:#F4E4DA;}
	.st1{enable-background:new    ;}
	.st2{fill:#B86160;}
	.st3{fill:none;stroke:#B86160;stroke-width:3;stroke-miterlimit:10;}
	.st4{fill:none;stroke:#B86160;stroke-width:2;stroke-miterlimit:10;}
</style>
<path class="st0" d="M1305.8,104.4c77.8-3.6,66.6-15.2,83.3,2.5c19.8,20.9,9,65.2,7.6,70.7c-7.7,30-24.2,37.4-20.2,55.6
	c4.6,20.7,28,19.2,37.9,42.9c8.8,21.2,2.7,52.6-15.2,65.7c-21.4,15.7-41.9-7.9-85.9,0c-43.1,7.8-47.3,34.9-75.8,32.8
	c-38.7-2.8-80.5-56.2-75.8-101c4.3-40.6,44.2-49.4,42.9-88.4c-1.1-35.9-35.4-65.7-7.6-85.9C1229.5,75.9,1245.8,107.2,1305.8,104.4z"
	/>
<path class="st0" d="M858.7,82.2c-32.9-6.7-64.2,12.5-92.1,28.4c-24.8,14.2-49.9,22.6-78.6,25.4c-75.4,7.4-101.3-35.3-154.8-12.9
	c-49,20.6-69.5,74.1-80.6,103.2C410.3,337,433,492.8,501,516.4c53,18.4,79.7-62.2,187-77.4c94.5-13.3,117.5,43.1,245,48.4
	c91.4,3.8,206.4-20,219.3-70.9c6.1-24.2-15.6-44.5-27-63.4c-14.1-23.3-21.4-48.7-16-76c3.7-18.7,12.7-35.8,18.6-53.9
	s8.3-38.8-0.8-55.5c-11.1-20.3-36.1-29-59.3-29.6s-46,4.9-69.2,4.8c-29.4-0.1-58.1-9.2-82.3-25.9c-15.6-10.9-29.5-25.2-47.3-31.8
	C865.6,83.9,862.2,82.9,858.7,82.2z"/>
<g class="st1">
	<path class="st2" d="M638.9,311.8H612v-2.7h79v2.7h-22v63.7h-2c-2.7-8-9.2-8-11.1-8c-4.4,0-7.5,1.5-16.2,5.1
		c-12.6,5.3-23,7.3-35.8,7.3c-48,0-81.1-35.1-81.1-86.9c0-59.6,45-94.2,79.2-94.2c10.7,0,17,2.4,29.5,7.3c8,3.1,11.1,3.4,13.1,3.4
		c4.4,0,5.8-1.9,7.3-4.6h1.9v50.4h-1.9c-5.8-26.2-19.4-53.8-49.6-53.8c-22,0-30.8,11.4-34.9,18.4c-8.7,15-10.2,48.4-10.2,71
		c0,35.1,1.5,50.6,7.8,65.4c5.8,13.8,17.2,21.1,37.1,21.1c33.7,0,37.1-14,37.1-32v-33.6H638.9z"/>
	<path class="st2" d="M719.3,272.6h-17.4v-2.7h41.7v73.4c0,23.5,5.6,32.2,18.2,32.2c22.3,0,27.4-25.2,27.4-38v-64.9h-17v-2.7h41.2
		v102.9h17.4v2.7H789v-20.3c-3.6,10.7-9.9,23-29.5,23c-14.8,0-24.5-5.1-31.5-13.1c-6.8-7.8-8.7-18.9-8.7-33.7V272.6z M757.8,215.2
		c0,7-5.6,12.6-12.6,12.6c-6.8,0-12.6-5.6-12.6-12.6s5.8-12.6,12.6-12.6S757.8,208.2,757.8,215.2z M802.4,215.2
		c0,7-5.6,12.6-12.6,12.6c-6.8,0-12.6-5.6-12.6-12.6s5.8-12.6,12.6-12.6S802.4,208.2,802.4,215.2z"/>
	<path class="st2" d="M868.2,272.6h-17.4v-2.7h41.7v102.9h17.4v2.7h-59.1v-2.7h17.4L868.2,272.6L868.2,272.6z M899,203.6
		c6.3-7.5,8.2-9.9,12.8-9.9c5.1,0,9,4.6,9,8.5c0,4.1-2.4,5.8-4.4,7l-44.1,30h-2.9L899,203.6z"/>
	<path class="st2" d="M1030,372.9h17.4v2.7h-41.7v-13.3c-2.7,4.6-9,16-25.4,16c-23,0-49.9-23.5-49.9-56.4
		c0-33.7,28.3-56.4,50.4-56.4c15.7,0,22,9.9,24.9,14.3V200h-17.4v-2.7h17.4h24.2L1030,372.9L1030,372.9z M998.5,274.8
		c-4.8-4.4-10.9-6.8-17.4-6.8c-22.3,0-23.5,23-23.5,50.1c0,39.2,2.2,57.4,23,57.4c3.6,0,14.5-0.5,21.8-12.8
		c4.6-7.5,5.3-19.9,5.3-41.4C1007.7,291.3,1007.5,283,998.5,274.8z"/>
</g>
<g class="st1">
	<path class="st3" d="M638.9,311.8H612v-2.7h79v2.7h-22v63.7h-2c-2.7-8-9.2-8-11.1-8c-4.4,0-7.5,1.5-16.2,5.1
		c-12.6,5.3-23,7.3-35.8,7.3c-48,0-81.1-35.1-81.1-86.9c0-59.6,45-94.2,79.2-94.2c10.7,0,17,2.4,29.5,7.3c8,3.1,11.1,3.4,13.1,3.4
		c4.4,0,5.8-1.9,7.3-4.6h1.9v50.4h-1.9c-5.8-26.2-19.4-53.8-49.6-53.8c-22,0-30.8,11.4-34.9,18.4c-8.7,15-10.2,48.4-10.2,71
		c0,35.1,1.5,50.6,7.8,65.4c5.8,13.8,17.2,21.1,37.1,21.1c33.7,0,37.1-14,37.1-32v-33.6H638.9z"/>
	<path class="st3" d="M719.3,272.6h-17.4v-2.7h41.7v73.4c0,23.5,5.6,32.2,18.2,32.2c22.3,0,27.4-25.2,27.4-38v-64.9h-17v-2.7h41.2
		v102.9h17.4v2.7H789v-20.3c-3.6,10.7-9.9,23-29.5,23c-14.8,0-24.5-5.1-31.5-13.1c-6.8-7.8-8.7-18.9-8.7-33.7V272.6z M757.8,215.2
		c0,7-5.6,12.6-12.6,12.6c-6.8,0-12.6-5.6-12.6-12.6s5.8-12.6,12.6-12.6S757.8,208.2,757.8,215.2z M802.4,215.2
		c0,7-5.6,12.6-12.6,12.6c-6.8,0-12.6-5.6-12.6-12.6s5.8-12.6,12.6-12.6S802.4,208.2,802.4,215.2z"/>
	<path class="st3" d="M868.2,272.6h-17.4v-2.7h41.7v102.9h17.4v2.7h-59.1v-2.7h17.4L868.2,272.6L868.2,272.6z M899,203.6
		c6.3-7.5,8.2-9.9,12.8-9.9c5.1,0,9,4.6,9,8.5c0,4.1-2.4,5.8-4.4,7l-44.1,30h-2.9L899,203.6z"/>
	<path class="st3" d="M1030,372.9h17.4v2.7h-41.7v-13.3c-2.7,4.6-9,16-25.4,16c-23,0-49.9-23.5-49.9-56.4
		c0-33.7,28.3-56.4,50.4-56.4c15.7,0,22,9.9,24.9,14.3V200h-17.4v-2.7h17.4h24.2L1030,372.9L1030,372.9z M998.5,274.8
		c-4.8-4.4-10.9-6.8-17.4-6.8c-22.3,0-23.5,23-23.5,50.1c0,39.2,2.2,57.4,23,57.4c3.6,0,14.5-0.5,21.8-12.8
		c4.6-7.5,5.3-19.9,5.3-41.4C1007.7,291.3,1007.5,283,998.5,274.8z"/>
</g>
<g class="st1">
	<path class="st2" d="M1242.4,141.8h-7.9v-1.2h18.8v41.2c1.4-4.2,5-10.4,13.2-10.4c6.2,0,11.3,2.3,13.9,5.6
		c3.8,4.7,4.4,10.2,4.4,15.5V220h7.9v1.2h-26.5V220h7.7v-31.3c0-10-1.2-16.1-8.3-16.1c-8.9,0-12.3,10.2-12.3,17.3V220h7.7v1.2h-26.5
		V220h7.9L1242.4,141.8L1242.4,141.8z"/>
	<path class="st2" d="M1326,171.3c10.9,0,24.1,10.5,24.1,25.9s-13.1,25.9-24.1,25.9s-24.2-10.6-24.2-25.9S1315.3,171.3,1326,171.3z
		 M1326,222c11.5,0,11.8-9.5,11.8-24.7s0-24.7-11.8-24.7c-11.3,0-11.9,9.1-11.9,24.7C1314,212.9,1314.4,222,1326,222z"/>
</g>
<g class="st1">
	<path class="st4" d="M1242.4,141.8h-7.9v-1.2h18.8v41.2c1.4-4.2,5-10.4,13.2-10.4c6.2,0,11.3,2.3,13.9,5.6
		c3.8,4.7,4.4,10.2,4.4,15.5V220h7.9v1.2h-26.5V220h7.7v-31.3c0-10-1.2-16.1-8.3-16.1c-8.9,0-12.3,10.2-12.3,17.3V220h7.7v1.2h-26.5
		V220h7.9L1242.4,141.8L1242.4,141.8z"/>
	<path class="st4" d="M1326,171.3c10.9,0,24.1,10.5,24.1,25.9s-13.1,25.9-24.1,25.9s-24.2-10.6-24.2-25.9S1315.3,171.3,1326,171.3z
		 M1326,222c11.5,0,11.8-9.5,11.8-24.7s0-24.7-11.8-24.7c-11.3,0-11.9,9.1-11.9,24.7C1314,212.9,1314.4,222,1326,222z"/>
</g>
<g class="st1">
	<path class="st2" d="M1230.8,251.1h-7.9v-1.2h18.8v8.3c1.4-4.2,4.7-10.4,13.2-10.4c1.8,0,11.5,0.1,16.4,9.5
		c2.8-5.4,6.6-9.5,14.8-9.5c5.9,0,10.8,2.2,13.9,5.5c3.8,4.3,4.7,8.5,4.7,15.7v27.5h7.9v1.2h-26.5v-1.2h7.7v-32
		c0-7.3-0.3-15.4-9.2-15.4c-4.3,0-9.2,2.1-12.6,10.1c0.9,2.7,1.2,6.2,1.2,9.9v27.5h7.9v1.2h-26.5v-1.2h7.7v-31.3
		c0-10-1.2-16.1-8.3-16.1c-9.2,0-12.3,10.9-12.3,17.3v30.1h7.7v1.2h-26.5v-1.2h7.9L1230.8,251.1L1230.8,251.1z"/>
	<path class="st2" d="M1363.6,288.1c-3.1,7.4-11.1,11.6-18.9,11.6c-13,0-24.2-9.3-24.2-24.6c0-15.2,11.4-27.3,23.4-27.3
		c9.1,0,19.9,8,20,23.2h-31.2v3.9c0,12,0,23.5,11.9,23.5c5.1,0,13.6-2.1,17.8-10.8L1363.6,288.1z M1353.5,269.8
		c-0.1-15.8-1.9-20.8-10.1-20.8c-10,0-10.6,8-10.7,20.8H1353.5z"/>
</g>
<g class="st1">
	<path class="st4" d="M1230.8,251.1h-7.9v-1.2h18.8v8.3c1.4-4.2,4.7-10.4,13.2-10.4c1.8,0,11.5,0.1,16.4,9.5
		c2.8-5.4,6.6-9.5,14.8-9.5c5.9,0,10.8,2.2,13.9,5.5c3.8,4.3,4.7,8.5,4.7,15.7v27.5h7.9v1.2h-26.5v-1.2h7.7v-32
		c0-7.3-0.3-15.4-9.2-15.4c-4.3,0-9.2,2.1-12.6,10.1c0.9,2.7,1.2,6.2,1.2,9.9v27.5h7.9v1.2h-26.5v-1.2h7.7v-31.3
		c0-10-1.2-16.1-8.3-16.1c-9.2,0-12.3,10.9-12.3,17.3v30.1h7.7v1.2h-26.5v-1.2h7.9L1230.8,251.1L1230.8,251.1z"/>
	<path class="st4" d="M1363.6,288.1c-3.1,7.4-11.1,11.6-18.9,11.6c-13,0-24.2-9.3-24.2-24.6c0-15.2,11.4-27.3,23.4-27.3
		c9.1,0,19.9,8,20,23.2h-31.2v3.9c0,12,0,23.5,11.9,23.5c5.1,0,13.6-2.1,17.8-10.8L1363.6,288.1z M1353.5,269.8
		c-0.1-15.8-1.9-20.8-10.1-20.8c-10,0-10.6,8-10.7,20.8H1353.5z"/>
</g>
<path class="st0" d="M0,50.9c223.5-2.3,293.2,26.2,301.8,60.5c11.2,45.1-84.6,94.4-69.4,165.6c8.9,42,47.1,47.4,65.9,87.2
	c9.3,19.8,13,46.5,3.1,83.1C277.2,537.7,194.5,598,101,598L0,600V50.9z"/>
<path class="st0" d="M1920,11.9c-203.3,0-347.3,35.8-376.6,87.6c-13.1,23.2-18.3,45.1-8,65.3c17.9,35.1,65.2,28.6,78.3,62.3
	c20.7,53.2-82.8,106.4-85.4,179.8c-1,28.8,14.4,59.9,74.4,101.6c69.2,48.2,150,77,234,84.3l83.3,7.2V11.9z"/>
</svg>
