<?xml version="1.0" encoding="utf-8"?>
<!-- Generator: Adobe Illustrator 25.0.1, SVG Export Plug-In . SVG Version: 6.00 Build 0)  -->
<svg version="1.1" id="Capa_1" xmlns="http://www.w3.org/2000/svg" xmlns:xlink="http://www.w3.org/1999/xlink" x="0px" y="0px"
	 viewBox="0 0 300 300" style="enable-background:new 0 0 300 300;" xml:space="preserve">
<style type="text/css">
	.st0{fill:#F3E3D9;}
	.st1{fill:#B76060;}
</style>
<path class="st0" d="M130.2,261.6c59.7,4.5,82.5,42.2,111.4,27.9c25.9-12.8,29.1-64.9,30.7-90.9c3.6-58.5-17.3-76.4-6.4-125.8
	c8-36.6,13.2-38.6,6.9-48.3c-12.5-19-59.2,25.4-142.6,17.2c-50-4.9-72.6-28.8-93.6-12.4c-12.2,9.5-14.5,25.4-17.9,87
	c-7.5,137.7-0.5,148,6.4,153C48.7,286.2,73.6,257.3,130.2,261.6z"/>
<g>
	<g>
		<path class="st1" d="M229.5,68H225c-0.8-1.8-1.9-3.5-3.3-4.9c-3-3-7-4.6-11.2-4.6H90.1c-7.2,0-14,3.6-18.1,9.5H58.4
			c-5.2,0-9.5,4.3-9.5,9.5c0,5.2,4.3,9.5,9.5,9.5h9.5v155.2c0,1.7,1.4,3.2,3.2,3.2h126.7c1.7,0,3.2-1.4,3.2-3.2v-6.3h22.2
			c1.7,0,3.2-1.4,3.2-3.2V87h3.2c5.2,0,9.5-4.3,9.5-9.5S234.8,68,229.5,68z M68.8,74.6c-0.2,0.7-0.3,1.3-0.4,2
			c-0.1,0.3-0.2,0.7-0.2,1c-0.1,1-0.2,2-0.2,3.1h-9.5c-1.7,0-3.2-1.4-3.2-3.2s1.4-3.2,3.2-3.2h10.4C68.8,74.4,68.8,74.5,68.8,74.6z
			 M194.7,239.1H74.3v-25.3h120.4V239.1z M194.7,207.4H74.3v-12.7h120.4V207.4z M197.6,65.3c-0.2,0.3-0.4,0.6-0.5,0.8
			c-0.3,0.4-0.5,0.9-0.7,1.3c-0.1,0.3-0.3,0.6-0.4,0.9c-0.1,0.2-0.2,0.4-0.3,0.6l0,0c-0.2,0.2-0.3,0.4-0.5,0.7
			c-0.1,0.1-0.2,0.2-0.2,0.3c-0.2,0.4-0.3,0.8-0.3,1.2v117.2H74.3V80.7c0-2.8,0.7-5.5,2.1-7.9c2.8-4.9,8-7.9,13.7-7.9h107.7
			C197.7,65,197.7,65.1,197.6,65.3z M203.5,68c0.4-0.4,0.8-0.8,1.3-1.2c0.1-0.1,0.3-0.2,0.4-0.3c0.4-0.3,0.8-0.5,1.2-0.7
			c0.2-0.1,0.4-0.2,0.6-0.2c0.4-0.2,0.8-0.3,1.2-0.4c0.2,0,0.4-0.1,0.6-0.1c0.6-0.1,1.2-0.2,1.9-0.2c2.5,0,4.9,1,6.7,2.8
			c0.1,0.1,0.3,0.3,0.4,0.4L203.5,68L203.5,68z M220,229.6h-19V87h19V229.6z M229.5,80.7H201v-6.3h28.5c1.7,0,3.2,1.4,3.2,3.2
			S231.3,80.7,229.5,80.7z"/>
	</g>
</g>
</svg>
