<?xml version="1.0" encoding="utf-8"?>
<!-- Generator: Adobe Illustrator 25.0.1, SVG Export Plug-In . SVG Version: 6.00 Build 0)  -->
<svg version="1.1" id="Capa_1" xmlns="http://www.w3.org/2000/svg" xmlns:xlink="http://www.w3.org/1999/xlink" x="0px" y="0px"
	 viewBox="0 0 300 300" style="enable-background:new 0 0 300 300;" xml:space="preserve">
<style type="text/css">
	.st0{fill:#F3E3D9;}
	.st1{fill:#B76060;}
</style>
<path class="st0" d="M167.4,28.6c68.1-1.2,87.2-7.7,99.2,6.9c17.4,21.3-11.9,49.1-13.1,114.4c-1.4,72.5,33.5,100.3,15.8,121.9
	c-19.6,23.9-62.8-9.3-161.2,0c-52.1,4.9-73.4,17.4-84,4.8C4.3,253.2,69.8,200,57.8,124.4C50,74.6,15.1,56.4,26.2,36.9
	C36.6,18.4,70,30.4,167.4,28.6z"/>
<path class="st1" d="M198.9,56.6c-1.7,0-3,1.4-3,3v3h-6.1v-3c0-1.7-1.4-3-3-3s-3,1.4-3,3v3h-6.1v-3c0-1.7-1.4-3-3-3
	c-1.7,0-3,1.4-3,3v3h-6.1v-3c0-1.7-1.4-3-3-3c-1.7,0-3,1.4-3,3v3h-6.1v-3c0-1.7-1.4-3-3-3s-3,1.4-3,3v3h-6.1v-3c0-1.7-1.4-3-3-3
	c-1.7,0-3,1.4-3,3v3h-6.1v-3c0-1.7-1.4-3-3-3c-1.7,0-3,1.4-3,3v3h-6.1v-3c0-1.7-1.4-3-3-3c-1.7,0-3,1.4-3,3v3h-6.1v-3
	c0-1.7-1.4-3-3-3c-1.7,0-3,1.4-3,3v181.7c0,1.7,1.4,3,3,3c1.7,0,3-1.4,3-3v-3h6.1v3c0,1.7,1.4,3,3,3c1.7,0,3-1.4,3-3v-3h6.1v3
	c0,1.7,1.4,3,3,3c1.7,0,3-1.4,3-3v-3h6.1v3c0,1.7,1.4,3,3,3c1.7,0,3-1.4,3-3v-3h6.1v3c0,1.7,1.4,3,3,3s3-1.4,3-3v-3h6.1v3
	c0,1.7,1.4,3,3,3c1.7,0,3-1.4,3-3v-3h6.1v3c0,1.7,1.4,3,3,3c1.7,0,3-1.4,3-3v-3h6.1v3c0,1.7,1.4,3,3,3s3-1.4,3-3v-3h6.1v3
	c0,1.7,1.4,3,3,3c1.7,0,3-1.4,3-3V59.6C202,58,200.6,56.6,198.9,56.6z M195.9,232.2h-90.8v-6.1h90.8V232.2z M195.9,220.1h-90.8v-13
	l6.2,3.5c0.9,0.5,2,0.5,3,0l9.3-5.2l9.3,5.2c0.9,0.5,2,0.5,3,0l9.3-5.2l9.3,5.2c0.9,0.5,2,0.5,3,0l9.3-5.2l9.3,5.2
	c0.9,0.5,2,0.5,3,0l9.3-5.2l7.7,4.4V220.1z M195.9,202.8l-6.3-3.5c-0.9-0.5-2-0.5-3,0l-9.3,5.2l-9.3-5.2c-0.9-0.5-2-0.5-3,0
	l-9.3,5.2l-9.3-5.2c-0.9-0.5-2-0.5-3,0l-9.3,5.2l-9.3-5.2c-0.9-0.5-2-0.5-3,0l-9.3,5.2l-7.7-4.4V192l6.2,3.5c0.9,0.5,2,0.5,3,0
	l9.3-5.2l9.3,5.2c0.9,0.5,2,0.5,3,0l9.3-5.2l9.3,5.2c0.9,0.5,2,0.5,3,0l9.3-5.2l9.3,5.2c0.9,0.5,2,0.5,3,0l9.3-5.2l7.7,4.4V202.8z
	 M195.9,187.7l-6.3-3.5c-0.9-0.5-2-0.5-3,0l-9.3,5.2l-9.3-5.2c-0.9-0.5-2-0.5-3,0l-9.3,5.2l-9.3-5.2c-0.9-0.5-2-0.5-3,0l-9.3,5.2
	l-9.3-5.2c-0.9-0.5-2-0.5-3,0l-9.3,5.2l-7.7-4.4v-8.2l6.2,3.5c0.9,0.5,2,0.5,3,0l9.3-5.2l9.3,5.2c0.9,0.5,2,0.5,3,0l9.3-5.2l9.3,5.2
	c0.9,0.5,2,0.5,3,0l9.3-5.2l9.3,5.2c0.9,0.5,2,0.5,3,0l9.3-5.2l7.7,4.4V187.7z M195.9,172.5l-6.3-3.5c-0.9-0.5-2-0.5-3,0l-9.3,5.2
	l-9.3-5.2c-0.9-0.5-2-0.5-3,0l-9.3,5.2l-9.3-5.2c-0.9-0.5-2-0.5-3,0l-9.3,5.2l-9.3-5.2c-0.9-0.5-2-0.5-3,0l-9.3,5.2l-7.7-4.4v-8.2
	l6.2,3.5c0.9,0.5,2,0.5,3,0l9.3-5.2l9.3,5.2c0.9,0.5,2,0.5,3,0l9.3-5.2l9.3,5.2c0.9,0.5,2,0.5,3,0l9.3-5.2l9.3,5.2
	c0.9,0.5,2,0.5,3,0l9.3-5.2l7.7,4.4V172.5z M195.9,157.4l-6.3-3.5c-0.9-0.5-2-0.5-3,0l-9.3,5.2l-9.3-5.2c-0.9-0.5-2-0.5-3,0
	l-9.3,5.2l-9.3-5.2c-0.9-0.5-2-0.5-3,0l-9.3,5.2l-9.3-5.2c-0.9-0.5-2-0.5-3,0l-9.3,5.2l-7.7-4.4v-8.2l6.2,3.5c0.9,0.5,2,0.5,3,0
	l9.3-5.2l9.3,5.2c0.9,0.5,2,0.5,3,0l9.3-5.2l9.3,5.2c0.9,0.5,2,0.5,3,0l9.3-5.2l9.3,5.2c0.9,0.5,2,0.5,3,0l9.3-5.2l7.7,4.4V157.4z
	 M195.9,142.3l-6.3-3.5c-0.9-0.5-2-0.5-3,0l-9.3,5.2l-9.3-5.2c-0.9-0.5-2-0.5-3,0l-9.3,5.2l-9.3-5.2c-0.9-0.5-2-0.5-3,0l-9.3,5.2
	l-9.3-5.2c-0.9-0.5-2-0.5-3,0l-9.3,5.2l-7.7-4.4v-8.2l6.2,3.5c0.9,0.5,2,0.5,3,0l9.3-5.2l9.3,5.2c0.9,0.5,2,0.5,3,0l9.3-5.2l9.3,5.2
	c0.9,0.5,2,0.5,3,0l9.3-5.2l9.3,5.2c0.9,0.5,2,0.5,3,0l9.3-5.2l7.7,4.4V142.3z M195.9,127.1l-6.3-3.5c-0.9-0.5-2-0.5-3,0l-9.3,5.2
	l-9.3-5.2c-0.9-0.5-2-0.5-3,0l-9.3,5.2l-9.3-5.2c-0.9-0.5-2-0.5-3,0l-9.3,5.2l-9.3-5.2c-0.9-0.5-2-0.5-3,0l-9.3,5.2l-7.7-4.4v-8.2
	l6.2,3.5c0.9,0.5,2,0.5,3,0l9.3-5.2l9.3,5.2c0.9,0.5,2,0.5,3,0l9.3-5.2l9.3,5.2c0.9,0.5,2,0.5,3,0l9.3-5.2l9.3,5.2
	c0.9,0.5,2,0.5,3,0l9.3-5.2l7.7,4.4V127.1z M195.9,112l-6.3-3.5c-0.9-0.5-2-0.5-3,0l-9.3,5.2l-9.3-5.2c-0.9-0.5-2-0.5-3,0l-9.3,5.2
	l-9.3-5.2c-0.9-0.5-2-0.5-3,0l-9.3,5.2l-9.3-5.2c-0.9-0.5-2-0.5-3,0l-9.3,5.2l-7.7-4.4v-8.2l6.2,3.5c0.9,0.5,2,0.5,3,0l9.3-5.2
	l9.3,5.2c0.9,0.5,2,0.5,3,0l9.3-5.2l9.3,5.2c0.9,0.5,2,0.5,3,0l9.3-5.2l9.3,5.2c0.9,0.5,2,0.5,3,0l9.3-5.2l7.7,4.4V112z M195.9,96.9
	l-6.3-3.5c-0.9-0.5-2-0.5-3,0l-9.3,5.2l-9.3-5.2c-0.9-0.5-2-0.5-3,0l-9.3,5.2l-9.3-5.2c-0.9-0.5-2-0.5-3,0l-9.3,5.2l-9.3-5.2
	c-0.9-0.5-2-0.5-3,0l-9.3,5.2l-7.7-4.4V80.8h90.8V96.9z M195.9,74.8h-90.8v-6.1h90.8V74.8z"/>
</svg>
