<svg id="Capa_1" data-name="Capa 1" xmlns="http://www.w3.org/2000/svg" viewBox="0 0 165 165"><defs><style>.cls-1{fill:#f3e3d9;}.cls-2{fill:#b76060;fill-rule:evenodd;}</style></defs><circle class="cls-1" cx="82.5" cy="82.5" r="82.5"/><path class="cls-2" d="M122.67,42.41a55.58,55.58,0,0,0-87.45,67.05l-7.88,28.79,29.45-7.73a55.47,55.47,0,0,0,26.55,6.76h0a55.59,55.59,0,0,0,39.3-94.87ZM83.37,127.9h0a46.07,46.07,0,0,1-23.51-6.44l-1.68-1-17.48,4.59,4.66-17-1.1-1.75A46.19,46.19,0,1,1,83.37,127.9ZM108.7,93.31c-1.39-.69-8.21-4-9.49-4.52s-2.2-.69-3.12.7S92.5,94,91.69,94.93s-1.62,1-3,.35a37.86,37.86,0,0,1-11.16-6.89,41.69,41.69,0,0,1-7.72-9.62c-.81-1.39,0-2.07.61-2.83a40.4,40.4,0,0,0,3.47-4.75,2.55,2.55,0,0,0-.12-2.43c-.35-.7-3.12-7.53-4.28-10.31s-2.27-2.34-3.12-2.38-1.74,0-2.67,0A5.09,5.09,0,0,0,60,57.75a15.59,15.59,0,0,0-4.86,11.59c0,6.83,5,13.43,5.67,14.36s9.79,15,23.72,21a80.61,80.61,0,0,0,7.91,2.93,19.25,19.25,0,0,0,8.75.55c2.67-.4,8.21-3.36,9.37-6.6s1.16-6,.81-6.61S110.09,94,108.7,93.31Z"/></svg>