<svg width="35" height="150" viewBox="0 0 35 150" fill="none" xmlns="http://www.w3.org/2000/svg">
<path d="M0 18C0 8.05888 8.05888 0 18 0H35V150H18C8.05887 150 0 141.941 0 132V18Z" fill="#F4E4DA"/>
<path fill-rule="evenodd" clip-rule="evenodd" d="M10.3425 115.351C8.18818 117.513 7.00126 120.389 7 123.452C7 129.764 12.1125 134.901 18.3963 134.904C20.405 134.905 22.3658 134.378 24.0942 133.375L30 135L28.4151 128.929C29.3232 127.256 29.8018 125.373 29.8023 123.457L29.8023 123.452C29.8023 117.14 24.6894 112.002 18.4054 112C15.36 111.999 12.4966 113.189 10.3425 115.351ZM27.8776 123.452L27.8776 123.456C27.8769 125.164 27.4201 126.839 26.5572 128.3L26.3518 128.648L27.2923 132.25L23.7967 131.289L23.4383 131.515C21.9301 132.468 20.1868 132.971 18.397 132.97C13.1741 132.968 8.9249 128.698 8.9249 123.448C8.92574 120.906 9.91234 118.516 11.7029 116.719C13.4935 114.922 15.8735 113.933 18.4047 113.933C23.628 113.936 27.8776 118.205 27.8776 123.452V123.452ZM20.7829 118.231C20.6402 118.517 19.9515 119.924 19.8564 120.186C19.7613 120.448 19.714 120.639 19.999 120.83C20.284 121.021 20.9255 121.569 21.1154 121.736C21.3055 121.903 21.3294 122.07 21.1867 122.356C21.0443 122.642 20.7434 123.564 19.7733 124.657C19.0181 125.508 18.0856 126.082 17.8006 126.249C17.5154 126.416 17.3761 126.25 17.2194 126.123C16.8366 125.814 16.4353 125.503 16.2453 125.408C16.0553 125.313 15.8889 125.36 15.7464 125.432C15.6039 125.503 14.2022 126.076 13.6319 126.314C13.0768 126.547 13.1518 126.782 13.1431 126.958C13.1348 127.125 13.1331 127.316 13.1331 127.506C13.1331 127.697 13.2043 128.007 13.4895 128.27C13.7746 128.532 14.4635 129.271 15.8652 129.271C17.2669 129.271 18.621 128.246 18.8111 128.103C19.0012 127.959 21.8776 126.085 23.1109 123.214C23.4046 122.532 23.5797 121.999 23.7109 121.583C23.9277 120.898 23.8971 120.274 23.8238 119.781C23.742 119.231 23.1348 118.088 22.4697 117.849C21.8044 117.611 21.2343 117.611 21.1154 117.683C20.9967 117.754 20.9255 117.945 20.7829 118.231V118.231Z" fill="#B86160"/>
<path d="M28.824 101.822L28.824 102.902C28.824 103.046 28.752 103.118 28.608 103.118L18.024 103.118C17.88 103.118 17.808 103.046 17.808 102.902L17.808 101.822C17.808 101.678 17.88 101.606 18.024 101.606L28.608 101.606C28.752 101.606 28.824 101.678 28.824 101.822ZM14.55 101.678C14.73 101.498 14.952 101.408 15.216 101.408C15.48 101.408 15.708 101.498 15.9 101.678C16.08 101.858 16.17 102.086 16.17 102.362C16.17 102.626 16.08 102.854 15.9 103.046C15.708 103.226 15.48 103.316 15.216 103.316C14.952 103.316 14.73 103.226 14.55 103.046C14.358 102.854 14.262 102.626 14.262 102.362C14.262 102.086 14.358 101.858 14.55 101.678ZM24 87.0505L24 91.3885C24 91.5325 23.928 91.6045 23.784 91.6045L22.866 91.6045C22.722 91.6045 22.65 91.5325 22.65 91.3885L22.65 90.0025L18.24 90.0025L18.24 96.6985L22.65 96.6985L22.65 95.3125C22.65 95.1565 22.722 95.0785 22.866 95.0785L23.784 95.0785C23.928 95.0785 24 95.1565 24 95.3125L24 99.6325C24 99.7885 23.928 99.8665 23.784 99.8665L22.866 99.8665C22.722 99.8665 22.65 99.7885 22.65 99.6325L22.65 98.2645L12.426 98.2645L12.426 99.6325C12.426 99.7885 12.354 99.8665 12.21 99.8665L11.292 99.8665C11.148 99.8665 11.076 99.7885 11.076 99.6325L11.076 95.3125C11.076 95.1565 11.148 95.0785 11.292 95.0785L12.21 95.0785C12.354 95.0785 12.426 95.1565 12.426 95.3125L12.426 96.6985L16.926 96.6985L16.926 90.0025L12.426 90.0025L12.426 91.3885C12.426 91.5325 12.354 91.6045 12.21 91.6045L11.292 91.6045C11.148 91.6045 11.076 91.5325 11.076 91.3885L11.076 87.0505C11.076 86.9065 11.148 86.8345 11.292 86.8345L12.21 86.8345C12.354 86.8345 12.426 86.9065 12.426 87.0505L12.426 88.4365L22.65 88.4365L22.65 87.0505C22.65 86.9065 22.722 86.8345 22.866 86.8345L23.784 86.8345C23.928 86.8345 24 86.9065 24 87.0505ZM24 76.9702L24 78.5362C24 79.0522 23.748 79.3102 23.244 79.3102L22.326 79.3102L22.326 79.3462C23.538 80.2222 24.144 81.3922 24.144 82.8562C24.144 83.7202 23.922 84.4282 23.478 84.9802C23.022 85.5322 22.41 85.8082 21.642 85.8082C20.658 85.8082 19.938 85.3822 19.482 84.5302C19.014 83.6662 18.78 82.4842 18.78 80.9842L18.78 79.4722L18.564 79.4722C17.064 79.4722 16.314 80.2522 16.314 81.8122C16.314 82.5442 16.386 83.0722 16.53 83.3962C16.662 83.7202 16.77 83.9542 16.854 84.0982C16.938 84.2302 17.004 84.3322 17.052 84.4042C17.196 84.5842 17.208 84.7162 17.088 84.8002L16.458 85.3042C16.362 85.3882 16.266 85.3762 16.17 85.2682C15.906 85.0642 15.648 84.6442 15.396 84.0082C15.144 83.3722 15.018 82.6222 15.018 81.7582C15.018 79.2382 16.218 77.9782 18.618 77.9782L22.794 77.9782L22.794 76.9702C22.794 76.8262 22.866 76.7542 23.01 76.7542L23.784 76.7542C23.928 76.7542 24 76.8262 24 76.9702ZM19.86 79.4722L19.86 80.8942C19.86 81.5902 19.896 82.1662 19.968 82.6222C20.04 83.0782 20.196 83.4682 20.436 83.7922C20.676 84.1042 21.006 84.2602 21.426 84.2602C21.846 84.2602 22.194 84.0922 22.47 83.7562C22.734 83.4082 22.866 82.9582 22.866 82.4062C22.866 81.2422 22.35 80.2642 21.318 79.4722L19.86 79.4722ZM24 73.9224L24 74.8404C24 74.9844 23.928 75.0564 23.784 75.0564L12.282 75.0564L12.282 76.0644C12.282 76.2204 12.21 76.2984 12.066 76.2984L11.292 76.2984C11.148 76.2984 11.076 76.2204 11.076 76.0644L11.076 73.8504C11.076 73.6944 11.148 73.6164 11.292 73.6164L16.08 73.6164L16.782 73.6704L16.782 73.6164C16.29 73.4124 15.876 73.0584 15.54 72.5544C15.192 72.0504 15.018 71.4264 15.018 70.6824C15.018 69.4704 15.438 68.4984 16.278 67.7664C17.106 67.0224 18.204 66.6504 19.572 66.6504C20.928 66.6504 22.026 67.0284 22.866 67.7844C23.706 68.5284 24.126 69.5004 24.126 70.7004C24.126 71.4564 23.952 72.0864 23.604 72.5904C23.244 73.0944 22.812 73.4544 22.308 73.6704L22.308 73.6884L23.784 73.6884C23.928 73.6884 24 73.7664 24 73.9224ZM19.554 73.6524C20.55 73.6524 21.354 73.3944 21.966 72.8784C22.566 72.3504 22.866 71.6844 22.866 70.8804C22.866 70.0764 22.56 69.4164 21.948 68.9004C21.336 68.3844 20.538 68.1264 19.554 68.1264C18.558 68.1264 17.766 68.3904 17.178 68.9184C16.578 69.4464 16.278 70.1064 16.278 70.8984C16.278 71.6784 16.572 72.3324 17.16 72.8604C17.748 73.3884 18.546 73.6524 19.554 73.6524ZM24 61.851L24 65.289C24 65.445 23.928 65.523 23.784 65.523L23.01 65.523C22.866 65.523 22.794 65.445 22.794 65.289L22.794 64.299L12.282 64.299L12.282 65.289C12.282 65.445 12.21 65.523 12.066 65.523L11.292 65.523C11.148 65.523 11.076 65.445 11.076 65.289L11.076 63.291C11.076 62.967 11.226 62.805 11.526 62.805L22.794 62.805L22.794 61.851C22.794 61.695 22.866 61.617 23.01 61.617L23.784 61.617C23.928 61.617 24 61.695 24 61.851ZM24 51.4292L24 52.9952C24 53.5112 23.748 53.7692 23.244 53.7692L22.326 53.7692L22.326 53.8052C23.538 54.6812 24.144 55.8512 24.144 57.3152C24.144 58.1792 23.922 58.8872 23.478 59.4392C23.022 59.9912 22.41 60.2672 21.642 60.2672C20.658 60.2672 19.938 59.8412 19.482 58.9892C19.014 58.1252 18.78 56.9432 18.78 55.4432L18.78 53.9312L18.564 53.9312C17.064 53.9312 16.314 54.7112 16.314 56.2712C16.314 57.0032 16.386 57.5312 16.53 57.8552C16.662 58.1792 16.77 58.4132 16.854 58.5572C16.938 58.6892 17.004 58.7912 17.052 58.8632C17.196 59.0432 17.208 59.1752 17.088 59.2592L16.458 59.7632C16.362 59.8472 16.266 59.8352 16.17 59.7272C15.906 59.5232 15.648 59.1032 15.396 58.4672C15.144 57.8312 15.018 57.0812 15.018 56.2172C15.018 53.6972 16.218 52.4372 18.618 52.4372L22.794 52.4372L22.794 51.4292C22.794 51.2852 22.866 51.2132 23.01 51.2132L23.784 51.2132C23.928 51.2132 24 51.2852 24 51.4292ZM19.86 53.9312L19.86 55.3532C19.86 56.0492 19.896 56.6252 19.968 57.0812C20.04 57.5372 20.196 57.9272 20.436 58.2512C20.676 58.5632 21.006 58.7192 21.426 58.7192C21.846 58.7192 22.194 58.5512 22.47 58.2152C22.734 57.8672 22.866 57.4172 22.866 56.8652C22.866 55.7012 22.35 54.7232 21.318 53.9312L19.86 53.9312ZM24 40.2849L24 41.9949C24 42.5109 23.748 42.7689 23.244 42.7689L18.51 42.7689C17.814 42.7689 17.274 42.9369 16.89 43.2729C16.506 43.6089 16.314 44.1009 16.314 44.7489C16.314 45.6729 16.692 46.3929 17.448 46.9089C17.52 46.9689 17.652 47.0469 17.844 47.1429L22.794 47.1429L22.794 46.1889C22.794 46.0329 22.866 45.9549 23.01 45.9549L23.784 45.9549C23.928 45.9549 24 46.0329 24 46.1889L24 49.6269C24 49.7829 23.928 49.8609 23.784 49.8609L23.01 49.8609C22.866 49.8609 22.794 49.7829 22.794 49.6269L22.794 48.6369L16.35 48.6369L16.35 49.6269C16.35 49.7829 16.278 49.8609 16.134 49.8609L15.36 49.8609C15.216 49.8609 15.144 49.7829 15.144 49.6269L15.144 47.5209C15.144 47.3649 15.216 47.2869 15.36 47.2869L16.584 47.3229L16.584 47.2689C15.54 46.6449 15.018 45.6789 15.018 44.3709C15.018 43.4109 15.3 42.6609 15.864 42.1209C16.428 41.5809 17.19 41.3049 18.15 41.2929L22.794 41.2929L22.794 40.2849C22.794 40.1289 22.866 40.0509 23.01 40.0509L23.784 40.0509C23.928 40.0509 24 40.1289 24 40.2849ZM22.866 31.4518C23.706 32.2918 24.126 33.3658 24.126 34.6738C24.126 35.9818 23.712 37.0558 22.884 37.8958C22.044 38.7358 20.934 39.1558 19.554 39.1558C18.162 39.1558 17.058 38.7298 16.242 37.8778C15.426 37.0258 15.018 35.9578 15.018 34.6738C15.018 33.3778 15.432 32.3098 16.26 31.4698C17.076 30.6178 18.174 30.1918 19.554 30.1918C20.922 30.1918 22.026 30.6118 22.866 31.4518ZM19.554 37.6438C20.538 37.6438 21.336 37.3558 21.948 36.7798C22.56 36.2038 22.866 35.5018 22.866 34.6738C22.866 33.8338 22.56 33.1258 21.948 32.5498C21.336 31.9738 20.538 31.6858 19.554 31.6858C18.57 31.6858 17.778 31.9798 17.178 32.5678C16.578 33.1438 16.278 33.8398 16.278 34.6558C16.278 35.4718 16.578 36.1738 17.178 36.7618C17.778 37.3498 18.57 37.6438 19.554 37.6438ZM24.126 24.8591C24.126 25.6631 23.976 26.3051 23.676 26.7851C23.376 27.2651 23.094 27.5651 22.83 27.6851L22.83 27.7211C23.418 27.6971 23.73 27.6851 23.766 27.6851C23.922 27.6851 24 27.7691 24 27.9371L24 28.5491C24 28.7051 23.922 28.7831 23.766 28.7831L21.066 28.7831C20.91 28.7831 20.832 28.7051 20.832 28.5491L20.832 27.8471C20.832 27.6791 20.91 27.5951 21.066 27.5951L21.426 27.5951C21.786 27.4751 22.116 27.2231 22.416 26.8391C22.776 26.3831 22.956 25.8131 22.956 25.1291C22.956 23.7851 22.488 23.1131 21.552 23.1131C21.228 23.1131 20.97 23.2991 20.778 23.6711C20.574 24.0431 20.406 24.4991 20.274 25.0391C20.142 25.5671 19.992 26.0951 19.824 26.6231C19.656 27.1511 19.386 27.6011 19.014 27.9731C18.63 28.3451 18.15 28.5311 17.574 28.5311C16.794 28.5311 16.176 28.2491 15.72 27.6851C15.252 27.1211 15.018 26.4011 15.018 25.5251C15.018 24.3371 15.366 23.4851 16.062 22.9691L16.062 22.9331C15.63 22.9571 15.408 22.9691 15.396 22.9691C15.24 22.9691 15.162 22.8911 15.162 22.7351L15.162 22.1591C15.162 22.0031 15.24 21.9251 15.396 21.9251L17.898 21.9251C18.054 21.9251 18.132 22.0031 18.132 22.1591L18.132 22.8611C18.132 23.0291 18.054 23.1131 17.898 23.1131L17.646 23.1131C17.322 23.1131 17.004 23.3051 16.692 23.6891C16.368 24.0611 16.206 24.5471 16.206 25.1471C16.206 25.7471 16.332 26.2151 16.584 26.5511C16.836 26.8871 17.166 27.0551 17.574 27.0551C17.97 27.0551 18.282 26.8691 18.51 26.4971C18.726 26.1131 18.9 25.6511 19.032 25.1111C19.152 24.5711 19.29 24.0311 19.446 23.4911C19.602 22.9511 19.86 22.4951 20.22 22.1231C20.58 21.7391 21.078 21.5471 21.714 21.5471C22.35 21.5471 22.914 21.8231 23.406 22.3751C23.886 22.9151 24.126 23.7431 24.126 24.8591ZM21.336 18.6072L21.336 19.6872C21.336 19.8312 21.264 19.9032 21.12 19.9032L10.536 19.9032C10.392 19.9032 10.32 19.8312 10.32 19.6872L10.32 18.6072C10.32 18.4632 10.392 18.3912 10.536 18.3912L21.12 18.3912C21.264 18.3912 21.336 18.4632 21.336 18.6072ZM23.262 18.4632C23.442 18.2832 23.664 18.1932 23.928 18.1932C24.192 18.1932 24.414 18.2832 24.594 18.4632C24.786 18.6432 24.882 18.8712 24.882 19.1472C24.882 19.4112 24.786 19.6392 24.594 19.8312C24.414 20.0112 24.192 20.1012 23.928 20.1012C23.664 20.1012 23.442 20.0112 23.262 19.8312C23.07 19.6392 22.974 19.4112 22.974 19.1472C22.974 18.8712 23.07 18.6432 23.262 18.4632Z" fill="#B86160"/>
</svg>
