<svg id="Capa_1" data-name="Capa 1" xmlns="http://www.w3.org/2000/svg" viewBox="0 0 1080 713.41"><defs><style>.cls-1{fill:#f4e4da;}.cls-2{fill:#b86160;stroke:#b86160;stroke-miterlimit:10;stroke-width:4px;}</style></defs><path class="cls-1" d="M628.31,70.93c-43.75-8.88-85.42,16.65-122.48,37.81-33,18.87-66.41,30-104.58,33.75-100.31,9.82-134.72-47-205.9-17.15C130.14,152.7,102.89,224,88.11,262.6,31.79,409.88,62,617.22,152.46,648.67c70.55,24.52,106-82.8,248.79-102.95C527,528,557.57,603.07,727.27,610.06c121.55,5,274.62-26.57,291.69-94.36,8.11-32.24-20.77-59.18-36-84.31-18.75-31-28.53-64.81-21.28-101.17,5-24.84,17-47.64,24.76-71.74s11-51.61-1.1-73.85c-14.74-27-48.07-38.56-78.83-39.45s-61.28,6.45-92.06,6.4A193.54,193.54,0,0,1,705,117.07c-20.83-14.53-39.23-33.43-63.05-42.26A90.21,90.21,0,0,0,628.31,70.93Z"/><path class="cls-2" d="M335.87,371H300.11v-3.55h105V371H375.83v84.74h-2.58c-3.55-10.64-12.25-10.64-14.82-10.64-5.8,0-10,1.94-21.59,6.77a113.84,113.84,0,0,1-47.69,9.67c-63.79,0-107.94-46.72-107.94-115.67,0-79.27,59.93-125.34,105.37-125.34,14.17,0,22.55,3.22,39.3,9.66,10.64,4.19,14.83,4.52,17.4,4.52,5.8,0,7.74-2.58,9.67-6.13h2.58v67H353c-7.73-34.8-25.78-71.53-66.05-71.53-29.32,0-40.92,15.15-46.4,24.49C228.9,268.52,227,313,227,343c0,46.72,1.93,67.34,10.31,87,7.73,18.37,22.87,28,49.3,28,44.78,0,49.29-18.68,49.29-42.53Z"/><path class="cls-2" d="M441.56,318.78h-23.2v-3.54h55.42v97.62c0,31.26,7.41,42.86,24.16,42.86,29.64,0,36.41-33.51,36.41-50.59V318.78H511.8v-3.54h54.77V452.17h23.2v3.55H534.35V428.65c-4.83,14.18-13.21,30.61-39.31,30.61-19.65,0-32.54-6.76-41.88-17.4-9-10.31-11.6-25.13-11.6-44.78Zm51.23-76.36A16.64,16.64,0,0,1,476,259.17a16.76,16.76,0,1,1,16.76-16.75Zm59.28,0a16.64,16.64,0,0,1-16.75,16.75,16.76,16.76,0,1,1,16.75-16.75Z"/><path class="cls-2" d="M638.42,318.78h-23.2v-3.54h55.42V452.17h23.2v3.55H615.22v-3.55h23.2ZM679.34,227c8.38-10,10.95-13.21,17.08-13.21,6.76,0,11.92,6.12,11.92,11.28,0,5.48-3.22,7.73-5.8,9.34l-58.64,40H640Z"/><path class="cls-2" d="M852.36,452.17h23.2v3.55H820.14V438c-3.54,6.12-11.92,21.26-33.83,21.26-30.61,0-66.38-31.25-66.38-75.07,0-44.79,37.7-75.08,67-75.08,20.95,0,29.32,13.22,33.19,19v-106h-23.2v-3.54h55.42ZM810.47,321.68a34.32,34.32,0,0,0-23.19-9c-29.65,0-31.26,30.61-31.26,66.7,0,52.19,2.9,76.36,30.61,76.36,4.83,0,19.33-.65,29-17.08,6.12-10,7.09-26.42,7.09-55.1C822.72,343.59,822.4,332.64,810.47,321.68Z"/></svg>